<svg version="1.1" id="Layer_1" xmlns="http://www.w3.org/2000/svg" xmlns:xlink="http://www.w3.org/1999/xlink" x="0px" y="0px"
	 width="100%" viewBox="0 0 125 125" enable-background="new 0 0 125 125" xml:space="preserve">
<path fill="#030102" opacity="1.000000" stroke="none" 
	d="
M81.000000,126.000000 
	C54.000000,126.000000 27.500000,126.000000 1.000000,126.000000 
	C1.000000,84.333336 1.000000,42.666668 1.000000,1.000000 
	C42.666668,1.000000 84.333336,1.000000 126.000000,1.000000 
	C126.000000,42.666668 126.000000,84.333336 126.000000,126.000000 
	C111.166664,126.000000 96.333336,126.000000 81.000000,126.000000 
M102.176491,70.891815 
	C102.339577,71.999901 102.502655,73.107986 102.737740,74.705322 
	C109.019600,71.923027 115.085106,69.412338 120.977928,66.546570 
	C123.613617,65.264801 123.387024,60.729927 120.777916,59.283306 
	C119.507248,58.578777 118.015213,58.273491 116.046661,57.472675 
	C109.816231,54.974499 103.585793,52.476322 97.309143,49.959618 
	C94.555855,59.980667 104.450676,57.236298 107.673286,61.006271 
	C104.167175,64.630569 94.603813,62.171036 97.358360,71.983887 
	C99.087440,71.329514 100.584846,70.762817 102.176491,70.891815 
M41.935150,90.087349 
	C41.565151,88.163887 41.195152,86.240417 40.793991,84.154953 
	C36.142448,84.154953 31.674910,84.154953 26.850235,83.369392 
	C26.557930,81.638542 26.265627,79.907692 26.001425,78.343246 
	C19.356308,78.343246 13.240698,78.343246 7.155044,78.343246 
	C6.041821,90.485245 12.092029,100.994255 22.737341,105.435127 
	C25.322746,106.513680 28.076517,107.188637 31.103277,108.659981 
	C43.048462,117.501968 56.073868,118.453278 69.211205,112.469978 
	C81.834885,106.720612 86.383835,95.657669 86.324944,82.258675 
	C86.239380,62.793140 86.303009,43.326954 86.303017,23.861044 
	C86.303017,20.072186 86.303017,16.283325 86.303017,11.997087 
	C80.286079,11.997087 74.671745,11.997087 68.559746,11.281749 
	C62.304970,11.281749 56.050198,11.281749 49.304031,11.281749 
	C49.304031,13.161126 49.304047,14.939947 49.304031,16.718767 
	C49.303852,36.790359 49.337311,56.862045 49.282429,76.933487 
	C49.266518,82.751274 48.434681,88.277565 41.935150,90.087349 
z"/>
<path fill="#FAF8FB" opacity="1.000000" stroke="none" 
	d="
M30.752869,108.049179 
	C28.076517,107.188637 25.322746,106.513680 22.737341,105.435127 
	C12.092029,100.994255 6.041821,90.485245 7.155044,78.343246 
	C13.240698,78.343246 19.356308,78.343246 26.001425,78.343246 
	C26.265627,79.907692 26.557930,81.638542 27.018255,84.103012 
	C30.273098,91.563232 34.975132,93.474640 42.088703,90.894585 
	C48.434681,88.277565 49.266518,82.751274 49.282429,76.933487 
	C49.337311,56.862045 49.303852,36.790359 49.304031,16.718767 
	C49.304047,14.939947 49.304031,13.161126 49.304031,11.281749 
	C56.050198,11.281749 62.304970,11.281749 68.723648,12.101389 
	C68.874428,34.714222 68.922050,56.507675 68.827255,78.300514 
	C68.761757,93.356079 59.424583,104.830505 44.678268,107.561966 
	C40.161362,108.398636 35.401482,107.923553 30.752869,108.049179 
z"/>
<path fill="#B601FE" opacity="1.000000" stroke="none" 
	d="
M30.928074,108.354576 
	C35.401482,107.923553 40.161362,108.398636 44.678268,107.561966 
	C59.424583,104.830505 68.761757,93.356079 68.827255,78.300514 
	C68.922050,56.507675 68.874428,34.714222 68.972481,12.459059 
	C74.671745,11.997087 80.286079,11.997087 86.303017,11.997087 
	C86.303017,16.283325 86.303017,20.072186 86.303017,23.861044 
	C86.303009,43.326954 86.239380,62.793140 86.324944,82.258675 
	C86.383835,95.657669 81.834885,106.720612 69.211205,112.469978 
	C56.073868,118.453278 43.048462,117.501968 30.928074,108.354576 
z"/>
<path fill="#F5EEF8" opacity="1.000000" stroke="none" 
	d="
M102.082253,70.196121 
	C100.584846,70.762817 99.087440,71.329514 97.358360,71.983887 
	C94.603813,62.171036 104.167175,64.630569 107.673286,61.006271 
	C104.450676,57.236298 94.555855,59.980667 97.309143,49.959618 
	C103.585793,52.476322 109.816231,54.974499 116.388252,58.057491 
	C117.628708,62.647263 115.739471,64.647583 112.055023,65.882225 
	C108.633156,67.028885 105.399033,68.735855 102.082253,70.196121 
z"/>
<path fill="#AD04F0" opacity="1.000000" stroke="none" 
	d="
M102.129372,70.543968 
	C105.399033,68.735855 108.633156,67.028885 112.055023,65.882225 
	C115.739471,64.647583 117.628708,62.647263 116.676613,58.214893 
	C118.015213,58.273491 119.507248,58.578777 120.777916,59.283306 
	C123.387024,60.729927 123.613617,65.264801 120.977928,66.546570 
	C115.085106,69.412338 109.019600,71.923027 102.737740,74.705322 
	C102.502655,73.107986 102.339577,71.999901 102.129372,70.543968 
z"/>
<path fill="#B207F5" opacity="1.000000" stroke="none" 
	d="
M42.011925,90.490967 
	C34.975132,93.474640 30.273098,91.563232 27.196823,84.495796 
	C31.674910,84.154953 36.142448,84.154953 40.793991,84.154953 
	C41.195152,86.240417 41.565151,88.163887 42.011925,90.490967 
z"/>
</svg>