<svg width="29" height="27" viewBox="0 0 29 27" fill="none" xmlns="http://www.w3.org/2000/svg">
<path d="M4.27338 4.27338H23.6978V22.1439H4.27338V4.27338Z" fill="url(#paint0_linear_14_253)"/>
<path fill-rule="evenodd" clip-rule="evenodd" d="M27.3871 1.12544C28.298 1.87561 28.4283 3.2222 27.6781 4.13312L17.7731 16.1607L14.4743 13.4441L24.3794 1.4165C25.1296 0.505578 26.4761 0.375263 27.3871 1.12544Z" fill="#60F2A3"/>
<path d="M13.3179 17.7778L13.8191 14.6795L16.5663 17.1214L13.8446 18.201C13.5643 18.3122 13.2697 18.0755 13.3179 17.7778Z" fill="#60F2A3"/>
<path fill-rule="evenodd" clip-rule="evenodd" d="M0 3.4964C0 1.56539 1.56539 0 3.4964 0H19.4245C20.2827 0 20.9784 0.69573 20.9784 1.55396C20.9784 2.41218 20.2827 3.10791 19.4245 3.10791H3.4964C3.28185 3.10791 3.10791 3.28185 3.10791 3.4964V23.5036C3.10791 23.7182 3.28185 23.8921 3.4964 23.8921H24.4748C24.6894 23.8921 24.8633 23.7182 24.8633 23.5036V11.0719C24.8633 10.2137 25.559 9.51799 26.4173 9.51799C27.2755 9.51799 27.9712 10.2137 27.9712 11.0719V23.5036C27.9712 25.4346 26.4058 27 24.4748 27H3.4964C1.56539 27 0 25.4346 0 23.5036V3.4964Z" fill="#60F2A3"/>
<defs>
<linearGradient id="paint0_linear_14_253" x1="14.1151" y1="-15.9203" x2="13.1381" y2="22.1221" gradientUnits="userSpaceOnUse">
<stop stop-color="#60F2A3"/>
<stop offset="1" stop-color="#60F2A3" stop-opacity="0"/>
</linearGradient>
</defs>
</svg>
