<svg width="20" height="20" viewBox="0 0 20 20" fill="none" xmlns="http://www.w3.org/2000/svg">
<path d="M9.99999 1.66667C8.90564 1.66667 7.82201 1.88221 6.81096 2.301C5.79992 2.71979 4.88126 3.33362 4.10743 4.10744C2.54463 5.67025 1.66666 7.78986 1.66666 10C1.66666 13.6833 4.05832 16.8083 7.36666 17.9167C7.78332 17.9833 7.91666 17.725 7.91666 17.5C7.91666 17.3083 7.91666 16.7833 7.91666 16.0917C5.60832 16.5917 5.11666 14.975 5.11666 14.975C4.73332 14.0083 4.19166 13.75 4.19166 13.75C3.43332 13.2333 4.24999 13.25 4.24999 13.25C5.08332 13.3083 5.52499 14.1083 5.52499 14.1083C6.24999 15.375 7.47499 15 7.94999 14.8C8.02499 14.2583 8.24166 13.8917 8.47499 13.6833C6.62499 13.475 4.68332 12.7583 4.68332 9.58333C4.68332 8.65833 4.99999 7.91667 5.54166 7.325C5.45832 7.11667 5.16666 6.25 5.62499 5.125C5.62499 5.125 6.32499 4.9 7.91666 5.975C8.57499 5.79167 9.29166 5.7 9.99999 5.7C10.7083 5.7 11.425 5.79167 12.0833 5.975C13.675 4.9 14.375 5.125 14.375 5.125C14.8333 6.25 14.5417 7.11667 14.4583 7.325C15 7.91667 15.3167 8.65833 15.3167 9.58333C15.3167 12.7667 13.3667 13.4667 11.5083 13.675C11.8083 13.9333 12.0833 14.4417 12.0833 15.2167C12.0833 16.3333 12.0833 17.2333 12.0833 17.5C12.0833 17.725 12.2167 17.9917 12.6417 17.9167C15.95 16.8 18.3333 13.6833 18.3333 10C18.3333 8.90565 18.1178 7.82202 17.699 6.81097C17.2802 5.79992 16.6664 4.88126 15.8925 4.10744C15.1187 3.33362 14.2001 2.71979 13.189 2.301C12.178 1.88221 11.0943 1.66667 9.99999 1.66667V1.66667Z" fill="white"/>
</svg>
