<svg width="22" height="26" viewBox="0 0 22 26" fill="none" xmlns="http://www.w3.org/2000/svg">
<path d="M3.07022 3.37131H18.1202V17.8193H3.07022V3.37131Z" fill="url(#paint0_linear_14_258)"/>
<path fill-rule="evenodd" clip-rule="evenodd" d="M2.76919 2.52839C2.6362 2.52839 2.52839 2.6362 2.52839 2.76919V23.2254C2.52839 23.2926 2.54593 23.332 2.56419 23.3589C2.58587 23.3909 2.62148 23.4229 2.66984 23.4448C2.7182 23.4667 2.76572 23.4723 2.80406 23.4675C2.83636 23.4635 2.87749 23.4507 2.92801 23.4064L9.01355 18.0668C10.0818 17.1296 11.6861 17.153 12.7264 18.1212L18.2571 23.268C18.3077 23.315 18.3489 23.3286 18.3808 23.3333C18.4192 23.3389 18.4676 23.3342 18.5173 23.3125C18.567 23.2908 18.6035 23.2587 18.6255 23.2268C18.6438 23.2002 18.6619 23.1608 18.6619 23.0917V2.76919C18.6619 2.6362 18.5541 2.52839 18.4211 2.52839H2.76919ZM0 2.76919C0 1.23981 1.23981 0 2.76919 0H18.4211C19.9505 0 21.1903 1.23981 21.1903 2.76919V23.0917C21.1903 25.5111 18.3058 26.7671 16.5346 25.1189L11.004 19.9721C10.9135 19.8879 10.774 19.8859 10.6811 19.9674L4.59557 25.3069C2.80586 26.8773 0 25.6064 0 23.2254V2.76919Z" fill="#54E346"/>
<defs>
<linearGradient id="paint0_linear_14_258" x1="10.6955" y1="-12.9549" x2="9.87138" y2="17.7999" gradientUnits="userSpaceOnUse">
<stop offset="0.182292" stop-color="#54E346" stop-opacity="0"/>
<stop offset="0.296875" stop-color="#84D632"/>
<stop offset="0.979167" stop-color="#8CD42F" stop-opacity="0.06"/>
</linearGradient>
</defs>
</svg>
