<svg width="19" height="19" viewBox="0 0 19 19" fill="none" xmlns="http://www.w3.org/2000/svg">
<path d="M15.0417 2.375C15.4616 2.375 15.8643 2.54181 16.1613 2.83875C16.4582 3.13568 16.625 3.53841 16.625 3.95833V15.0417C16.625 15.4616 16.4582 15.8643 16.1613 16.1613C15.8643 16.4582 15.4616 16.625 15.0417 16.625H3.95833C3.53841 16.625 3.13568 16.4582 2.83875 16.1613C2.54181 15.8643 2.375 15.4616 2.375 15.0417V3.95833C2.375 3.53841 2.54181 3.13568 2.83875 2.83875C3.13568 2.54181 3.53841 2.375 3.95833 2.375H15.0417ZM14.6458 14.6458V10.45C14.6458 9.76552 14.3739 9.10908 13.8899 8.62507C13.4059 8.14107 12.7495 7.86917 12.065 7.86917C11.3921 7.86917 10.6083 8.28083 10.2283 8.89833V8.01958H8.01958V14.6458H10.2283V10.7429C10.2283 10.1333 10.7192 9.63458 11.3287 9.63458C11.6227 9.63458 11.9046 9.75135 12.1125 9.95921C12.3203 10.1671 12.4371 10.449 12.4371 10.7429V14.6458H14.6458ZM5.44667 6.77667C5.7994 6.77667 6.1377 6.63654 6.38712 6.38712C6.63654 6.1377 6.77667 5.7994 6.77667 5.44667C6.77667 4.71042 6.18292 4.10875 5.44667 4.10875C5.09183 4.10875 4.75152 4.24971 4.50062 4.50062C4.24971 4.75152 4.10875 5.09183 4.10875 5.44667C4.10875 6.18292 4.71042 6.77667 5.44667 6.77667ZM6.54708 14.6458V8.01958H4.35417V14.6458H6.54708Z" fill="white"/>
</svg>
