<svg width="29" height="22" viewBox="0 0 29 22" fill="none" xmlns="http://www.w3.org/2000/svg">
<path d="M14.0171 10.9533L4.12929 4.51479C3.08244 3.83312 1.69684 4.58434 1.69684 5.83356V19.2835C1.69684 19.7692 1.92105 20.2276 2.30439 20.5257L2.65892 20.8015C2.93516 21.0164 3.27513 21.133 3.62509 21.133H24.7721C25.0165 21.133 25.2574 21.0761 25.4759 20.9669L26.4333 20.4882C26.9664 20.2216 27.3032 19.6767 27.3032 19.0806V5.09349C27.3032 3.77953 25.7882 3.04419 24.7559 3.85712L15.8494 10.8709C15.3194 11.2883 14.5824 11.3215 14.0171 10.9533Z" fill="url(#paint0_linear_14_264)"/>
<path fill-rule="evenodd" clip-rule="evenodd" d="M24.5197 2.34343H3.74973L14.4333 10.1133C14.5399 10.1908 14.6852 10.1876 14.7882 10.1054L24.5197 2.34343ZM2.34343 4.21832V18.7475C2.34343 19.2328 2.73688 19.6263 3.22222 19.6263H25.7778C26.2631 19.6263 26.6566 19.2328 26.6566 18.7475V3.63659L16.2495 11.9374C15.322 12.6773 14.0145 12.7064 13.055 12.0085L2.34343 4.21832ZM0 3.22222C0 1.44264 1.44264 0 3.22222 0H25.7778C27.5574 0 29 1.44264 29 3.22222V18.7475C29 20.5271 27.5574 21.9697 25.7778 21.9697H3.22222C1.44264 21.9697 0 20.527 0 18.7475V3.22222Z" fill="#6092F2"/>
<defs>
<linearGradient id="paint0_linear_14_264" x1="14.5" y1="1.85109" x2="14.5" y2="21.133" gradientUnits="userSpaceOnUse">
<stop stop-color="#2259C4" stop-opacity="0.67"/>
<stop offset="1" stop-color="#020710"/>
</linearGradient>
</defs>
</svg>
